<svg width="32" height="32" xmlns="http://www.w3.org/2000/svg">

 <g>
  <title>background</title>
  <rect fill="none" id="canvas_background" height="402" width="582" y="-1" x="-1"/>
 </g>
 <g>
  <title>Layer 1</title>
  <path id="svg_1" d="m16.206541,1.865748c-7.832062,0 -14.203099,6.232644 -14.203099,13.893288s6.371037,13.893287 14.203099,13.893287s14.203098,-6.232645 14.203098,-13.893287s-6.371037,-13.893288 -14.203098,-13.893288zm0,25.471027c-6.525969,0 -11.835916,-5.193542 -11.835916,-11.577739s5.309947,-11.57774 11.835916,-11.57774s11.835915,5.193542 11.835915,11.57774s-5.309946,11.577739 -11.835915,11.577739zm5.571165,-15.390288l-3.897448,3.81255l3.897566,3.812549c0.462311,0.452227 0.462311,1.184866 0,1.637209c-0.231274,0.225996 -0.534037,0.339111 -0.836918,0.339111s-0.605644,-0.113115 -0.8368,-0.339228l-3.897566,-3.812433l-3.897568,3.81255c-0.231155,0.225996 -0.533917,0.339111 -0.836799,0.339111s-0.605643,-0.113115 -0.836799,-0.339228c-0.462312,-0.452227 -0.462312,-1.184866 0,-1.637209l3.897448,-3.812432l-3.897567,-3.81255c-0.462311,-0.452227 -0.462311,-1.184866 0,-1.637208s1.211288,-0.452227 1.673717,0l3.897568,3.81255l3.897566,-3.81255c0.462311,-0.452227 1.211288,-0.452227 1.673717,0s0.462311,1.184981 -0.000118,1.637208z"/>
 </g>
</svg>