<svg width="32" height="32" xmlns="http://www.w3.org/2000/svg">

 <g>
  <title>background</title>
  <rect fill="none" id="canvas_background" height="402" width="582" y="-1" x="-1"/>
 </g>
 <g>
  <title>Layer 1</title>
  <path fill="#e24647" id="svg_1" d="m24,23.542999l-4.356001,-4.355999c0.875,-1.168001 1.399,-2.614 1.399,-4.186c0,-3.866 -3.133999,-7 -6.999999,-7s-7,3.134 -7,7s3.134,6.999999 7,6.999999c1.572,0 3.018001,-0.525 4.186,-1.399l4.355999,4.356001l1.415001,-1.415001zm-14.957,-8.542999c0,-2.757 2.243,-5 5,-5c2.756999,0 4.999999,2.243 4.999999,5c0,2.757 -2.243,5 -4.999999,5c-2.757,0 -5,-2.243 -5,-5z"/>
 </g>
</svg>